<svg width="64" height="64" viewBox="0 0 64 64" fill="none" xmlns="http://www.w3.org/2000/svg">
  <!-- Background circle -->
  <circle cx="32" cy="32" r="30" fill="url(#gradient)" stroke="#10B981" stroke-width="2"/>
  
  <!-- Herb/leaf design -->
  <path d="M32 8C28 8 24 12 24 16C24 20 28 24 32 28C36 24 40 20 40 16C40 12 36 8 32 8Z" fill="#10B981"/>
  <path d="M32 28C28 28 24 32 24 36C24 40 28 44 32 48C36 44 40 40 40 36C40 32 36 28 32 28Z" fill="#059669"/>
  
  <!-- Stem -->
  <rect x="31" y="16" width="2" height="32" fill="#065F46"/>
  
  <!-- Small leaves -->
  <circle cx="20" cy="24" r="3" fill="#34D399"/>
  <circle cx="44" cy="24" r="3" fill="#34D399"/>
  <circle cx="20" cy="40" r="3" fill="#34D399"/>
  <circle cx="44" cy="40" r="3" fill="#34D399"/>
  
  <!-- Gradient definition -->
  <defs>
    <linearGradient id="gradient" x1="0%" y1="0%" x2="100%" y2="100%">
      <stop offset="0%" style="stop-color:#F0FDF4;stop-opacity:1" />
      <stop offset="100%" style="stop-color:#DCFCE7;stop-opacity:1" />
    </linearGradient>
  </defs>
</svg>
